{"title":"Ghastly.2011.HDTV.720p.Cinemania.cc.mkv","uid":8893484,"size":2113070601,"categoryP":"video","categoryS":"hd___movies","magnet":"?xt=urn:btih:d1ba9381220d3fd1b93840e476a2182e00030e56&amp;dn=Ghastly.2011.HDTV.720p.Cinemania.cc.mkv&amp;tr=udp%3A%2F%2Ftracker.openbittorrent.com%3A80&amp;tr=udp%3A%2F%2Fopen.demonii.com%3A1337&amp;tr=udp%3A%2F%2Ftracker.coppersurfer.tk%3A6969&amp;tr=udp%3A%2F%2Fexodus.desync.com%3A6969","seeders":0,"leechers":0,"uploader":"ABSTAIN","files":1,"time":1378598733,"description":"[img]http://cinemania.cc/torrents/images/6160.jpg[/img]\n &lt;a href=&quot;\nhttp://www.imdb.com/title/tt2095647/&quot; rel=&quot;nofollow&quot; target=&quot;_NEW&quot;&gt;\nhttp://www.imdb.com/title/tt2095647/&lt;/a&gt;\n\nGeneral \nGhastly.2011.HDTV.720p.Cinemania.cc.mkv \nFormat : Matroska \nFormat version : Version 4 / Version 2 \nFile size : 1.97 GiB \nDuration : 1h 17mn \nOverall bit rate : 3 655 Kbps \nMovie name : CINEMANIA.CC \nEncoded date : UTC 2013-09-08 09:14:37 \nWriting application : mkvmerge v6.3.0 ('You can't stop me!') built on Jun 28 2013 20:09:41 \nWriting library : libebml v1.3.0 + libmatroska v1.4.0 \n\nVideo \nID : 1 \nFormat : AVC \nFormat/Info : Advanced Video Codec \nFormat profile : &lt;a class=&quot;__cf_email__&quot; href=&quot;/cdn-cgi/l/email-protection&quot; data-cfemail=&quot;bff2ded6d1fff38b918e&quot;&gt;[email&amp;#160;protected]&lt;/a&gt;&lt;script cf-hash='f9e31' type=&quot;text/javascript&quot;&gt;\n/* &lt;![CDATA[ */!function(){try{var t=&quot;currentScript&quot;in document?document.currentScript:function(){for(var t=document.getElementsByTagName(&quot;script&quot;),e=t.length;e--;)if(t[e].getAttribute(&quot;cf-hash&quot;))return t[e]}();if(t&amp;&amp;t.previousSibling){var e,r,n,i,c=t.previousSibling,a=c.getAttribute(&quot;data-cfemail&quot;);if(a){for(e=&quot;&quot;,r=parseInt(a.substr(0,2),16),n=2;a.length-n;n+=2)i=parseInt(a.substr(n,2),16)^r,e+=String.fromCharCode(i);e=document.createTextNode(e),c.parentNode.replaceChild(e,c)}}}catch(u){}}();/* ]]&gt; */&lt;/script&gt; \nFormat settings, CABAC : Yes \nFormat settings, ReFrames : 5 frames \nCodec ID : V_MPEG4/ISO/AVC \nDuration : 1h 17mn \nBit rate : 2 942 Kbps \nWidth : 1 280 pixels \nHeight : 544 pixels \nDisplay aspect ratio : 2.35:1 \nFrame rate mode : Constant \nFrame rate : 23.976 fps \nColor space : YUV \nChroma subsampling : 4:2:0 \nBit depth : 8 bits \nScan type : Progressive \nBits/(Pixel*Frame) : 0.176 \nStream size : 1.58 GiB (80%) \nTitle : CINEMANIA.CC \nDefault : Yes \nForced : No \n\nAudio #1 \nID : 2 \nFormat : AC-3 \nFormat/Info : Audio Coding 3 \nMode extension : CM (complete main) \nFormat settings, Endianness : Big \nCodec ID : A_AC3 \nDuration : 1h 17mn \nBit rate mode : Constant \nBit rate : 256 Kbps \nChannel(s) : 2 channels \nChannel positions : Front: L R \nSampling rate : 48.0 KHz \nBit depth : 16 bits \nCompression mode : Lossy \nStream size : 141 MiB (7%) \nTitle : den904 \nLanguage : Russian \nDefault : Yes \nForced : Yes \n\nAudio #2 \nID : 3 \nFormat : AC-3 \nFormat/Info : Audio Coding 3 \nMode extension : CM (complete main) \nFormat settings, Endianness : Big \nCodec ID : A_AC3 \nDuration : 1h 17mn \nBit rate mode : Constant \nBit rate : 384 Kbps \nChannel(s) : 2 channels \nChannel positions : Front: L R \nSampling rate : 48.0 KHz \nBit depth : 16 bits \nCompression mode : Lossy \nStream size : 212 MiB (11%) \nLanguage : Korean \nDefault : No \nForced : No \n\nText #1 \nID : 4 \nFormat : UTF-8 \nCodec ID : S_TEXT/UTF8 \nCodec ID/Info : UTF-8 Plain Text \nTitle : Selena Min \nLanguage : Russian \nDefault : No \nForced : No \n\nText #2 \nID : 5 \nFormat : UTF-8 \nCodec ID : S_TEXT/UTF8 \nCodec ID/Info : UTF-8 Plain Text \nLanguage : English \nDefault : No \nForced : No ","torrent":{"xt":"urn:btih:d1ba9381220d3fd1b93840e476a2182e00030e56","amp;dn":"Ghastly.2011.HDTV.720p.Cinemania.cc.mkv","amp;tr":["udp%3A%2F%2Ftracker.openbittorrent.com%3A80","udp%3A%2F%2Fopen.demonii.com%3A1337","udp%3A%2F%2Ftracker.coppersurfer.tk%3A6969","udp%3A%2F%2Fexodus.desync.com%3A6969"],"infoHash":"d1ba9381220d3fd1b93840e476a2182e00030e56","infoHashBuffer":{"type":"Buffer","data":[209,186,147,129,34,13,63,209,185,56,64,228,118,162,24,46,0,3,14,86]},"announce":[],"urlList":[]}}